<svg width="24" height="25" viewBox="0 0 24 25" fill="none" xmlns="http://www.w3.org/2000/svg">
<g clip-path="url(#clip0_27_2246)">
<path d="M12 24.8477C18.6274 24.8477 24 19.4751 24 12.8477C24 6.22024 18.6274 0.847656 12 0.847656C5.37258 0.847656 0 6.22024 0 12.8477C0 19.4751 5.37258 24.8477 12 24.8477Z" fill="#F0F0F0"/>
<path d="M2.48056 5.54175C1.53796 6.76814 0.827189 8.18165 0.41333 9.71723H6.65605L2.48056 5.54175Z" fill="#0052B4"/>
<path d="M23.5865 9.71719C23.1726 8.18165 22.4618 6.76814 21.5193 5.54175L17.3439 9.71719H23.5865Z" fill="#0052B4"/>
<path d="M0.41333 15.9781C0.827236 17.5137 1.538 18.9272 2.48056 20.1535L6.65591 15.9781H0.41333Z" fill="#0052B4"/>
<path d="M19.3058 3.32827C18.0794 2.38566 16.6659 1.67489 15.1304 1.26099V7.50366L19.3058 3.32827Z" fill="#0052B4"/>
<path d="M4.69409 22.3669C5.92048 23.3095 7.334 24.0202 8.86953 24.4342V18.1915L4.69409 22.3669Z" fill="#0052B4"/>
<path d="M8.86948 1.26099C7.33395 1.67489 5.92044 2.38566 4.69409 3.32822L8.86948 7.50361V1.26099Z" fill="#0052B4"/>
<path d="M15.1304 24.4342C16.6659 24.0202 18.0794 23.3095 19.3058 22.3669L15.1304 18.1915V24.4342Z" fill="#0052B4"/>
<path d="M17.3439 15.9781L21.5193 20.1536C22.4618 18.9272 23.1726 17.5137 23.5865 15.9781H17.3439Z" fill="#0052B4"/>
<path d="M23.8984 11.2825H13.5653H13.5653V0.949234C13.0529 0.882531 12.5305 0.847656 12 0.847656C11.4694 0.847656 10.9471 0.882531 10.4348 0.949234V11.2824V11.2824H0.101578C0.034875 11.7948 0 12.3172 0 12.8477C0 13.3782 0.034875 13.9005 0.101578 14.4129H10.4347H10.4347V24.7461C10.9471 24.8128 11.4694 24.8477 12 24.8477C12.5305 24.8477 13.0529 24.8128 13.5652 24.7461V14.413V14.4129H23.8984C23.9651 13.9005 24 13.3782 24 12.8477C24 12.3172 23.9651 11.7948 23.8984 11.2825Z" fill="#D80027"/>
<path d="M15.1305 15.9782L20.4853 21.333C20.7316 21.0868 20.9665 20.8294 21.1907 20.5626L16.6062 15.9781H15.1305V15.9782Z" fill="#D80027"/>
<path d="M8.86951 15.9781H8.86941L3.51465 21.3329C3.76084 21.5792 4.01823 21.8141 4.28504 22.0383L8.86951 17.4537V15.9781Z" fill="#D80027"/>
<path d="M8.86951 9.71726V9.71716L3.5147 4.3623C3.26842 4.60849 3.03348 4.86588 2.80933 5.1327L7.39384 9.71721H8.86951V9.71726Z" fill="#D80027"/>
<path d="M15.1305 9.71735L20.4854 4.36243C20.2392 4.11615 19.9818 3.88121 19.715 3.6571L15.1305 8.24163V9.71735Z" fill="#D80027"/>
</g>
<defs>
<clipPath id="clip0_27_2246">
<rect width="24" height="24" fill="white" transform="translate(0 0.847656)"/>
</clipPath>
</defs>
</svg>
